<svg width="1406" height="2144" viewBox="0 0 1406 2144" fill="none" xmlns="http://www.w3.org/2000/svg">
<path d="M1149.37 2034.35C1161.82 2034.35 1164.93 2031.23 1166.48 2018.01L1322.79 344.501H1087.16L922.299 2031.23H1128.38L1149.37 2034.35Z" fill="#F2F2F2"/>
<path fill-rule="evenodd" clip-rule="evenodd" d="M0 326.615V202.19C0 195.969 17.1084 185.082 34.2168 185.082H123.647H1035.06H1099.6L1093.38 264.792L1087.16 344.501H83.9867H28.7732C10.1095 344.501 1.67799e-05 332.836 0 326.615Z" fill="#DDBD7A"/>
<path d="M1406 202.19C1406 196.747 1388.89 185.082 1371.78 185.082H1283.13H1099.6L1093.38 264.792L1087.16 344.501H1322.79H1381.89C1392 344.501 1406 335.169 1406 328.17V202.19Z" fill="#D8B56B"/>
<path fill-rule="evenodd" clip-rule="evenodd" d="M123.647 105.761C123.647 102.65 131.424 97.9845 136.867 97.2069L921.521 3.11057C931.631 1.55526 941.499 0.122094 953.405 4.34543e-10L1035.06 4.34531e-10V185.082H123.647V105.761Z" fill="#DDBD7A"/>
<path d="M1283.13 11.6648C1283.13 3.88823 1279.24 -4.74639e-05 1269.13 4.34543e-10L1035.06 4.34531e-10V185.082H1099.6H1283.13V11.6648Z" fill="#D8B56B"/>
<path fill-rule="evenodd" clip-rule="evenodd" d="M286.955 2143.99C283.844 2143.99 276.845 2139.33 276.845 2133.11V2031.23H881.861V2143.99H286.955Z" fill="#DDBD7A"/>
<path d="M1118.27 2143.99C1124.49 2143.99 1128.38 2141.66 1128.38 2136.22V2031.23H922.299H881.861V2143.99H1118.27Z" fill="#D8B56B"/>
<path d="M83.9867 344.501L243.406 2014.13C244.961 2028.12 251.183 2034.35 265.958 2034.35L276.845 2031.23H881.861H922.299L1087.16 344.501H83.9867Z" fill="white"/>
<path d="M86.237 720.109C67.5733 720.109 64.4626 720.109 68.3509 751.216L136.785 1455.77C139.895 1481.43 143.006 1481.43 170.224 1481.43H1014.06L1079.39 720.109H86.237Z" fill="#DDBD7A"/>
<path d="M1250.39 1481.43C1268.27 1481.43 1270.61 1481.43 1273.72 1455.77L1339.04 751.993C1342.15 720.109 1339.04 720.109 1308.71 720.109H1079.39L1014.06 1481.43H1250.39Z" fill="#D8B56B"/>
<path fill-rule="evenodd" clip-rule="evenodd" d="M237.963 1100.38C237.963 1339.61 445.819 1533.54 702.223 1533.54C825.195 1533.54 937.001 1488.93 1020.06 1416.11C1110.19 1337.1 1166.48 1224.87 1166.48 1100.38C1166.48 999.773 1129.72 907.175 1068.04 833.646C983.063 732.339 850.793 667.228 702.223 667.228C445.819 667.228 237.963 861.157 237.963 1100.38ZM767.994 921.025L652.596 913.066L563.726 1231.41L611.477 1239.36L627.394 1170.39L754.73 1159.78L787.89 1239.36L830.336 1231.41L767.994 921.025ZM673.819 974.082H677.798L744.119 1134.58H635.353L673.819 974.082ZM1032.33 1267.22C1061.55 1217.35 1078.16 1160.12 1078.16 1099.28C1078.16 1057.51 1070.33 1017.44 1055.96 980.285C1042.32 944.992 1022.77 912.327 998.445 883.326C929.635 801.306 822.531 748.59 702.228 748.59C494.607 748.59 326.298 905.6 326.298 1099.28C326.298 1292.96 494.607 1449.97 702.228 1449.97C801.803 1449.97 892.336 1413.86 959.596 1354.9C988.522 1329.55 1013.14 1299.97 1032.33 1267.22ZM702.709 1413.39C515.631 1413.39 363.974 1272.44 363.974 1098.57C363.974 924.693 515.631 783.741 702.709 783.741C811.11 783.741 907.617 831.065 969.619 904.697C1014.62 958.14 1041.44 1025.44 1041.44 1098.57C1041.44 1189.05 1000.37 1270.62 934.614 1328.04C874.009 1380.97 792.433 1413.39 702.709 1413.39Z" fill="#265E55"/>
<path fill-rule="evenodd" clip-rule="evenodd" d="M326.298 1099.28C326.298 1292.96 494.607 1449.97 702.228 1449.97C801.803 1449.97 892.336 1413.86 959.596 1354.9C988.522 1329.55 1013.14 1299.97 1032.33 1267.22L1055.96 980.285C1042.32 944.992 1022.77 912.327 998.445 883.326C929.635 801.306 822.531 748.59 702.228 748.59C494.607 748.59 326.298 905.6 326.298 1099.28ZM363.974 1098.57C363.974 1272.44 515.631 1413.39 702.709 1413.39C792.433 1413.39 874.009 1380.97 934.614 1328.04C1000.37 1270.62 1041.44 1189.05 1041.44 1098.57C1041.44 1025.44 1014.62 958.14 969.619 904.697C907.617 831.065 811.11 783.741 702.709 783.741C515.631 783.741 363.974 924.693 363.974 1098.57Z" fill="white"/>
<path d="M1032.33 1267.22C1061.55 1217.35 1078.16 1160.12 1078.16 1099.28C1078.16 1057.51 1070.33 1017.44 1055.96 980.285L1032.33 1267.22Z" fill="#F2F2F2"/>
<path fill-rule="evenodd" clip-rule="evenodd" d="M652.596 913.066L767.994 921.025L830.336 1231.41L787.89 1239.36L754.73 1159.78L627.394 1170.39L611.477 1239.36L563.726 1231.41L652.596 913.066ZM677.798 974.082H673.819L635.353 1134.58H744.119L677.798 974.082Z" fill="white"/>
</svg>
