<svg width="1920" height="960" viewBox="0 0 1920 960" fill="none" xmlns="http://www.w3.org/2000/svg">
    <g className='sky'>
        <rect width="1920" height="960" fill="url(#paint0_linear_206_2)"/>
    </g>
    <!-- <g className='stars'>
        <path d="M1011 319.12C1016.84 318.573 1018.03 316.767 1018.07 312.049C1018.12 316.396 1018.88 318.509 1025.14 319.12C1019.32 319.304 1018.02 321.055 1018.07 326.191C1018.14 320.427 1016.57 318.898 1011 319.12Z" fill="white" fill-opacity="0.8"/>
        <path d="M109 272.899C114.842 272.352 116.028 270.546 116.071 265.828C116.117 270.175 116.881 272.289 123.142 272.899C117.323 273.084 116.024 274.834 116.071 279.97C116.138 274.206 114.574 272.677 109 272.899Z" fill="white" fill-opacity="0.6"/>
        <path d="M786 179.899C791.842 179.352 793.028 177.546 793.071 172.828C793.117 177.175 793.881 179.289 800.142 179.899C794.323 180.084 793.024 181.834 793.071 186.97C793.138 181.206 791.574 179.677 786 179.899Z" fill="white"/>
        <path d="M1272 204.071C1277.84 203.524 1279.03 201.718 1279.07 197C1279.12 201.347 1279.88 203.461 1286.14 204.071C1280.32 204.256 1279.02 206.006 1279.07 211.142C1279.14 205.378 1277.57 203.849 1272 204.071Z" fill="white"/>
        <path d="M1685 592.899C1689.67 592.462 1690.62 591.017 1690.66 587.243C1690.69 590.72 1691.31 592.411 1696.31 592.899C1691.66 593.047 1690.62 594.447 1690.66 598.556C1690.71 593.945 1689.46 592.722 1685 592.899Z" fill="white" fill-opacity="0.5"/>
        <path d="M1612 341.899C1617.84 341.352 1619.03 339.546 1619.07 334.828C1619.12 339.175 1619.88 341.289 1626.14 341.899C1620.32 342.084 1619.02 343.834 1619.07 348.97C1619.14 343.206 1617.57 341.677 1612 341.899Z" fill="white"/>
        <path d="M1796 212.071C1801.84 211.524 1803.03 209.718 1803.07 205C1803.12 209.347 1803.88 211.461 1810.14 212.071C1804.32 212.256 1803.02 214.006 1803.07 219.142C1803.14 213.378 1801.57 211.849 1796 212.071Z" fill="white" fill-opacity="0.6"/>
        <path d="M1310 490.899C1314.67 490.462 1315.62 489.017 1315.66 485.243C1315.69 488.72 1316.31 490.411 1321.31 490.899C1316.66 491.047 1315.62 492.447 1315.66 496.556C1315.71 491.945 1314.46 490.722 1310 490.899Z" fill="white" fill-opacity="0.5"/>
        <path opacity="0.8" d="M322 569.899C326.673 569.462 327.622 568.017 327.657 564.243C327.693 567.72 328.305 569.411 333.314 569.899C328.658 570.047 327.619 571.447 327.657 575.556C327.71 570.945 326.459 569.722 322 569.899Z" fill="white" fill-opacity="0.5"/>
        <path d="M483 333.657C488.842 333.11 490.028 331.303 490.071 326.586C490.117 330.932 490.881 333.046 497.142 333.657C491.323 333.841 490.024 335.592 490.071 340.728C490.138 334.964 488.574 333.434 483 333.657Z" fill="white" fill-opacity="0.5"/>
        <path d="M411 171.071C416.842 170.524 418.028 168.718 418.071 164C418.117 168.347 418.881 170.461 425.142 171.071C419.323 171.256 418.024 173.006 418.071 178.142C418.138 172.378 416.574 170.849 411 171.071Z" fill="white"/>
        <path d="M710 513.899C714.673 513.462 715.622 512.017 715.657 508.243C715.693 511.72 716.305 513.411 721.314 513.899C716.658 514.047 715.619 515.447 715.657 519.556C715.71 514.945 714.459 513.722 710 513.899Z" fill="white" fill-opacity="0.5"/>
    </g> -->
    <g className='land'>
        <path d="M368 774.757C491.5 800.772 617.5 813.257 667.5 791.757C688.5 782.727 797 775.257 861.5 801.757C926 828.257 1038.5 829.757 1160 798.257C1305.68 773.459 1382.89 776.9 1514.5 806.757C1602.5 826.72 1721 825.757 1818.5 801.257C1852.33 792.757 1879 783.757 1920 783.757V959.757H0V722.257C76.2105 713.291 160.857 731.122 365.661 774.264L368 774.757Z" fill="url(#paint1_linear_206_2)"/>
        <path d="M691 848.571C540.191 854.068 367.5 873.613 304.5 878.621C188 887.883 118 909.673 0 909.673V958.755L1920 959.757V910.675C1689.1 909.627 1500 886.472 1359 839.556C1214.5 791.475 938.5 833.791 894 837.552C815.218 844.212 732.5 847.058 691 848.571Z" fill="url(#paint2_linear_206_2)"/>
        <path d="M0 760.757C93.856 770.111 187 790.257 254 840.757C346.5 910.477 351.5 901.257 468.5 904.257C507.5 904.257 606.346 893.898 693.5 877.257C796.5 857.591 883 852.757 962.5 869.257C1024 882.021 1121 877.257 1217 853.257C1292.5 834.382 1434.5 836.257 1525.5 857.757C1650.5 887.29 1800 872.257 1920 817.257V959.257H0V760.757Z" fill="url(#paint3_linear_206_2)"/>
    </g>
    
    <defs>
    <linearGradient id="paint0_linear_206_2" x1="960" y1="0" x2="960" y2="960" gradientUnits="userSpaceOnUse">
    <stop stop-color="#062C43"/>
    <stop offset="1" stop-color="#5591A9"/>
    </linearGradient>
    <linearGradient id="paint1_linear_206_2" x1="960" y1="720" x2="960" y2="960" gradientUnits="userSpaceOnUse">
    <stop stop-color="#033957"/>
    <stop offset="1" stop-color="#5591A9"/>
    </linearGradient>
    <linearGradient id="paint2_linear_206_2" x1="960" y1="817" x2="960" y2="959.757" gradientUnits="userSpaceOnUse">
    <stop stop-color="#033957"/>
    <stop offset="1" stop-color="#5591A9"/>
    </linearGradient>
    <linearGradient id="paint3_linear_206_2" x1="960" y1="860" x2="960" y2="959.757" gradientUnits="userSpaceOnUse">
    <stop stop-color="#033957"/>
    <stop offset="1" stop-color="#5591A9"/>
    </linearGradient>
    </defs>
</svg>
